<svg width="512" height="512" viewBox="0 0 512 512" fill="none" xmlns="http://www.w3.org/2000/svg">
<path d="M36.3 21.9992C19.3 24.4992 4.2 38.9992 1 55.8992C0.3 59.3992 0 133.699 0 271.899C0 479.199 0 482.499 2 485.699C4.2 489.399 8.9 491.099 13.5 489.799C15.6 489.299 32.6 472.899 69 436.499L121.5 383.999H276C405.7 383.999 431.5 383.699 436.5 382.599C450.8 379.199 462.1 368.699 467.1 354.199C468.9 348.899 469 344.399 469 256.699V164.599L487 146.499C501.2 132.099 505.5 127.099 507.5 122.699C515.1 106.199 512.3 89.1992 499.9 76.3992C493.6 69.9992 486.2 66.2992 476.7 64.7992L469.2 63.5992L468.7 58.1992C467.5 47.0992 458.5 33.3992 448.4 27.4992C437.4 21.0992 454.4 21.5992 238 21.3992C129.9 21.2992 39.2 21.5992 36.3 21.9992ZM435.5 44.8992C443.4 48.4992 448 56.1992 448 65.9992V70.5992L387.5 130.999L327 191.499L219.9 191.999L112.8 192.499L109.9 195.799C105.8 200.399 105.9 205.699 110.1 209.899L113.2 212.999H211.1C264.9 212.999 309 213.099 309 213.299C309 213.499 306.8 224.799 304 238.499C301.3 252.199 299 265.099 299 267.299C299 272.599 303.5 276.999 308.9 276.999C311.8 276.999 352.6 269.299 365 266.499C366.5 266.099 383.2 250.199 407.7 225.699L448 185.499V265.499C448 340.999 447.9 345.699 446.1 349.499C443.9 354.399 439.6 358.799 435 360.899C431.8 362.299 416.2 362.499 272 362.799L112.6 362.999L66.8 408.799L21 454.499L21.2 256.499L21.5 58.4992L23.7 54.2992C26 49.9992 30.6 45.8992 35 44.0992C36.6 43.4992 107.5 43.0992 234.5 43.0992C423 42.9992 431.7 43.0992 435.5 44.8992ZM480 87.4991C483 89.0991 487.3 93.4991 489 96.9991C490.8 100.399 490.6 108.899 488.6 113.099C487.7 114.999 483 120.499 478.2 125.299L469.5 133.999L455.7 120.199L441.9 106.399L451.8 96.7991C460 88.8991 462.5 86.9991 466.1 86.1991C471 85.0991 476.2 85.5991 480 87.4991ZM405.6 197.899L357.3 246.199L340.5 249.599C331.2 251.499 323.5 252.799 323.3 252.699C323.2 252.499 324.5 244.799 326.4 235.499L329.8 218.699L378.1 170.399L426.5 121.999L440.2 135.699L454 149.499L405.6 197.899Z" fill="#707A8A"/>
<path d="M113.4 129C109.9 130.4 107 134.9 107 139.1C107 142 107.7 143.6 110.1 145.9L113.2 149H234.7H356.2L359.1 146.1C364.5 140.7 362.7 131.5 355.8 129.1C352 127.8 116.6 127.7 113.4 129Z" fill="#707A8A"/>
<path d="M113.4 257C109.9 258.4 107 262.9 107 267.1C107 270 107.7 271.6 110.1 273.9L113.2 277H181H248.8L251.9 274.4C255.7 271.2 256.8 266.4 254.6 262.1C251.3 255.8 253.7 256 181.3 256.1C145.1 256.1 114.5 256.5 113.4 257Z" fill="#707A8A"/>
</svg>
