<svg width="512" height="470" viewBox="0 0 512 470" fill="none" xmlns="http://www.w3.org/2000/svg">
<path d="M36.3 0.899588C19.3 3.39959 4.2 17.8996 1 34.7996C0.3 38.2996 0 112.6 0 250.8C0 458.1 0 461.4 2 464.6C4.2 468.3 8.9 470 13.5 468.7C15.6 468.2 32.6 451.8 69 415.4L121.5 362.9H276C405.7 362.9 431.5 362.6 436.5 361.5C450.8 358.1 462.1 347.6 467.1 333.1C468.9 327.9 469 323.8 469 261.1V194.7L465.9 191.8C462.3 188.4 456.9 187.9 453 190.5C451.6 191.4 434.8 207.8 415.5 227C389.1 253.2 379.4 262.3 376 263.8C373.5 264.9 357.6 268.5 340.7 271.9C312.9 277.4 309.3 277.9 304.5 277C293.6 275 284.8 268.1 280.3 258.2C276.7 250.4 277.1 243.7 282.5 217C285 204.6 287 193.9 287 193.2C287 192.1 271.2 191.9 200.1 191.9H113.2L110.1 188.8C105.9 184.6 105.8 179.3 109.9 174.7L112.8 171.4L204.7 171.1L296.5 170.9L317.3 150.1C328.7 138.7 338 129.1 338 128.7C338 128.2 287.4 127.9 225.6 127.9H113.2L110.1 124.8C105.9 120.6 105.8 115.3 109.9 110.7L112.8 107.4L233.5 107.1C320.5 106.9 354.7 107.2 356.2 108C358.1 109 361.7 105.6 396.9 70.6996C433.2 34.5996 436 32.0996 443.4 28.2996C452.5 23.7996 455.4 20.3996 454.6 14.9996C454.3 13.0996 453 10.4996 451.8 9.09959C448.7 5.69959 440.4 2.19959 432.8 0.899588C425.4 -0.300411 44.5 -0.300411 36.3 0.899588ZM250 236.4C256.6 239.8 257.6 248.5 251.9 253.3L248.8 255.9H181H113.2L110.1 252.8C107.7 250.5 107 248.9 107 246C107 241.8 109.9 237.3 113.4 235.9C114.5 235.4 145.1 235 181.3 235C238.2 234.9 247.5 235.1 250 236.4Z" fill="#FAB6B6"/>
<path d="M461.3 44.4004C458.4 45.2004 454.1 46.8004 451.8 48.0004C446.7 50.5004 311.7 184.8 310.1 188.8C308.5 193 299 242.1 299 246.2C299 251.4 303.6 255.9 308.9 255.9C312.9 255.9 362 246.4 366.1 244.8C367.5 244.3 399.3 213.1 436.8 175.6C510.9 101.4 508.6 104 511.2 90.0004C514.9 70.0004 500.9 49.2004 480.5 44.3004C473.1 42.6004 468 42.6004 461.3 44.4004ZM456 99.4004L469.5 112.9L461.7 120.6L454 128.4L440.3 114.7L426.5 100.9L434 93.4004C438.1 89.3004 441.7 85.9004 442 85.9004C442.3 85.9004 448.6 92.0004 456 99.4004Z" fill="#FAB6B6"/>
</svg>
