<svg width="44" height="44" viewBox="0 0 44 44" fill="none" xmlns="http://www.w3.org/2000/svg">
<path d="M22 27C24.7614 27 27 24.7614 27 22C27 19.2386 24.7614 17 22 17C19.2386 17 17 19.2386 17 22C17 24.7614 19.2386 27 22 27Z" fill="#707A8A"/>
<path d="M8 27C10.7614 27 13 24.7614 13 22C13 19.2386 10.7614 17 8 17C5.23858 17 3 19.2386 3 22C3 24.7614 5.23858 27 8 27Z" fill="#707A8A"/>
<path d="M36 27C38.7614 27 41 24.7614 41 22C41 19.2386 38.7614 17 36 17C33.2386 17 31 19.2386 31 22C31 24.7614 33.2386 27 36 27Z" fill="#707A8A"/>
<path d="M22 41C24.7614 41 27 38.7614 27 36C27 33.2386 24.7614 31 22 31C19.2386 31 17 33.2386 17 36C17 38.7614 19.2386 41 22 41Z" fill="#707A8A"/>
<path d="M8 41C10.7614 41 13 38.7614 13 36C13 33.2386 10.7614 31 8 31C5.23858 31 3 33.2386 3 36C3 38.7614 5.23858 41 8 41Z" fill="#707A8A"/>
<path d="M36 41C38.7614 41 41 38.7614 41 36C41 33.2386 38.7614 31 36 31C33.2386 31 31 33.2386 31 36C31 38.7614 33.2386 41 36 41Z" fill="#707A8A"/>
<path d="M22 13C24.7614 13 27 10.7614 27 8C27 5.23858 24.7614 3 22 3C19.2386 3 17 5.23858 17 8C17 10.7614 19.2386 13 22 13Z" fill="#707A8A"/>
<path d="M8 13C10.7614 13 13 10.7614 13 8C13 5.23858 10.7614 3 8 3C5.23858 3 3 5.23858 3 8C3 10.7614 5.23858 13 8 13Z" fill="#707A8A"/>
<path d="M36 13C38.7614 13 41 10.7614 41 8C41 5.23858 38.7614 3 36 3C33.2386 3 31 5.23858 31 8C31 10.7614 33.2386 13 36 13Z" fill="#707A8A"/>
</svg>
