<svg width="159" height="159" viewBox="0 0 159 159" fill="none" xmlns="http://www.w3.org/2000/svg">
<path d="M26.5 26.5V132.5C26.5 136.014 27.896 139.384 30.3808 141.869C32.8657 144.354 36.2359 145.75 39.75 145.75H119.25C122.764 145.75 126.134 144.354 128.619 141.869C131.104 139.384 132.5 136.014 132.5 132.5V55.2658C132.5 53.5006 132.147 51.7533 131.462 50.1264C130.777 48.4995 129.774 47.0259 128.512 45.792L99.0968 17.0262C96.6214 14.6059 93.297 13.2504 89.835 13.25H39.75C36.2359 13.25 32.8657 14.646 30.3808 17.1308C27.896 19.6157 26.5 22.9859 26.5 26.5V26.5Z" stroke="#FAB6B6" stroke-width="13.25" stroke-linecap="round" stroke-linejoin="round"/>
<path d="M59.625 86.125H99.375" stroke="#FAB6B6" stroke-width="13.25" stroke-linecap="round" stroke-linejoin="round"/>
<path d="M59.625 112.625H79.5" stroke="#FAB6B6" stroke-width="13.25" stroke-linecap="round" stroke-linejoin="round"/>
<path d="M92.75 13.25V39.75C92.75 43.2641 94.146 46.6343 96.6308 49.1192C99.1157 51.604 102.486 53 106 53H132.5" stroke="#FAB6B6" stroke-width="13.25" stroke-linejoin="round"/>
</svg>
