<svg width="159" height="159" viewBox="0 0 159 159" fill="none" xmlns="http://www.w3.org/2000/svg">
<path d="M145.75 125.875V59.625C145.75 56.1109 144.354 52.7407 141.869 50.2558C139.384 47.771 136.014 46.375 132.5 46.375H87.6885C85.2274 46.3749 82.8149 45.6894 80.7215 44.3952C78.6281 43.101 76.9365 41.2493 75.8364 39.0478L69.9136 27.2023C68.813 24.9997 67.1204 23.1473 65.0257 21.8531C62.931 20.5588 60.5171 19.8739 58.0549 19.875H26.5C22.9859 19.875 19.6157 21.271 17.1308 23.7558C14.646 26.2407 13.25 29.6109 13.25 33.125V125.875C13.25 129.389 14.646 132.759 17.1308 135.244C19.6157 137.729 22.9859 139.125 26.5 139.125H132.5C136.014 139.125 139.384 137.729 141.869 135.244C144.354 132.759 145.75 129.389 145.75 125.875Z" stroke="#FAB6B6" stroke-width="13.25" stroke-linecap="round" stroke-linejoin="round"/>
</svg>
