<svg width="512" height="469" viewBox="0 0 512 469" fill="none" xmlns="http://www.w3.org/2000/svg">
<path d="M115 1.89992C107.7 4.19992 102.5 7.59992 96.7001 13.8999C90.9001 20.0999 87.5001 27.0999 86.0001 35.9999C85.2001 40.5999 85.0001 81.9999 85.2001 174.5L85.5001 306.5L87.7001 312.3C92.0001 323.8 101.6 333.7 112.7 338.1L118.5 340.5L295 340.8C424 341 473.1 340.8 477.5 340C494 336.8 507.8 322.9 511 306.5C511.8 302.2 512 263.6 511.8 166.5L511.5 32.4999L509.3 27.1999C506.1 19.1999 499.6 11.3999 492.7 6.89992C481.2 -0.500078 496.5 -7.83216e-05 298.6 0.0999217C131.1 0.0999217 120.2 0.199922 115 1.89992ZM478.9 23.5999C485.5 26.8999 489.6 32.8999 490.5 40.3999C490.8 43.1999 491 88.5999 490.8 141.4L490.5 237.2L443.2 182.1C417.3 151.8 394.1 125.6 391.8 124C381.2 116.3 365.7 116.4 354.6 124.3C352.4 125.9 321.8 162.2 266.3 228.9C266.1 229.2 258.2 221.7 248.7 212.2C228.5 192.1 226 190.6 213.5 190.6C198.9 190.5 199.7 190 150.3 239.3L107 282.4V159.7C107 40.7999 107.1 36.7999 108.9 33.1999C110 31.1999 112.1 28.2999 113.7 26.7999C120.1 20.6999 107 21.0999 298.6 20.9999H473.6L478.9 23.5999ZM379.8 141.8C381.1 142.7 406.6 172.1 436.5 207L490.9 270.5L491 284.8C491 292.7 490.5 301.2 489.8 303.8C488.2 310.2 481.2 317.2 474.8 318.8C468.7 320.4 128.4 320.5 122.9 319C120.9 318.4 117.8 317 116 315.7C108.9 310.9 106 314.5 159.5 261C191.7 228.8 209.3 211.9 211 211.5C212.5 211.2 215 211.4 216.6 212C218.2 212.6 228.7 222.3 240 233.5C251.3 244.7 261.8 254.4 263.4 255C270.1 257.5 269.8 257.8 320.1 197.5C351 160.4 368 140.8 369.8 140.1C373.1 138.9 376.7 139.5 379.8 141.8Z" fill="#707A8A"/>
<path d="M179 65.7999C171.7 68.1999 166.5 71.6999 160.7 77.8999C145.2 94.4999 145.8 119.9 162.1 136.3C186.7 160.9 228 147.4 234 112.9C236.4 99.2999 231.4 85.3999 220.6 75.1999C212.2 67.3999 205.8 64.7999 193.5 64.2999C186.7 64.0999 183.1 64.3999 179 65.7999ZM200.5 86.8999C216.3 93.9999 217.2 116.5 202 124.9C192.7 130.1 180.9 127.2 174.6 118.2C170.6 112.5 169.8 103.3 172.8 97.3999C178.3 86.6999 190.2 82.1999 200.5 86.8999Z" fill="#707A8A"/>
<path d="M47.8001 165.5C46.2001 166.4 44.5001 168.7 43.6001 171.2C39.8001 181.3 0.800088 329 0.300088 335C-1.09991 351.8 9.10009 369.3 24.3001 376.3C27.2001 377.6 55.1001 385.6 86.5001 394C117.9 402.3 193 422.5 253.5 438.7C314 454.9 366.3 468.5 369.6 468.7C385.4 470.1 402.9 460.2 410 446C413.2 439.6 430 378.1 430 372.8C430 368.3 426.2 363.4 422.1 362.5C418.5 361.7 412.5 364.1 411 367C410.1 368.7 392 434 392 435.6C392 435.9 390.1 438.1 387.9 440.5C384.8 443.9 382.4 445.4 378.3 446.6C372.1 448.4 372.9 448.5 346.5 441.4C335.5 438.5 260.8 418.5 180.5 397C22.7001 354.8 29.0001 356.8 24.3001 348.6C19.7001 340.3 19.2001 343 42.5001 256.2C54.3001 212.1 64.0001 174.8 64.0001 173.4C64.0001 171.8 62.7001 169.5 60.6001 167.4C56.8001 163.6 52.5001 163 47.8001 165.5Z" fill="#707A8A"/>
</svg>
