<svg width="512" height="469" viewBox="0 0 512 469" fill="none" xmlns="http://www.w3.org/2000/svg">
<path d="M125.3 1.50073C107.9 6.20073 93.5999 19.7007 87.6999 36.9007L85.4999 43.5007L85.1999 165.001C84.9999 244.801 85.2999 289.201 85.8999 294.501C87.1999 304.001 92.5999 316.001 98.8999 323.201C104 329.001 112.5 334.701 121 338.001L127.5 340.501L295.8 340.801C481.1 341.101 470.3 341.401 483.2 334.901C496.2 328.301 507.9 312.901 510.9 298.201C511.7 294.501 512 255.401 512 170.201C512 34.4007 512.3 41.0007 505.5 28.1007C499.5 16.7007 488.9 7.40073 476.5 2.70073L470.5 0.500727L300.5 0.300727C156.7 0.100727 129.7 0.300727 125.3 1.50073ZM462.5 43.4007C469.4 46.3007 469 41.3007 468.8 126.501L468.5 203.401L433.3 162.501C409.5 134.701 396.8 120.601 393.8 118.801C380.7 110.801 365.3 111.001 352.7 119.301C349.3 121.601 336 136.801 306.8 171.801L265.7 221.101L250.5 206.101C231.4 187.201 228.3 185.501 213.5 185.501C197.1 185.501 197.2 185.401 159.8 222.801L128 254.501V152.701C128 40.2007 127.6 46.4007 134.3 43.5007C139.1 41.4007 457.4 41.3007 462.5 43.4007Z" fill="#FAB6B6"/>
<path d="M179 65.7999C171.7 68.1999 166.5 71.6999 160.7 77.8999C145.2 94.4999 145.8 119.9 162.1 136.3C186.7 160.9 228 147.4 234 112.9C236.4 99.2999 231.4 85.3999 220.6 75.1999C212.2 67.3999 205.8 64.7999 193.5 64.2999C186.7 64.0999 183.1 64.3999 179 65.7999Z" fill="#FAB6B6"/>
<path d="M26.7001 236.5C11.0001 288.8 0.600093 325.2 0.300093 328.9C-1.39991 347.2 10.0001 367.4 26.3001 375.3C29.4001 376.8 49.5001 382.8 70.8001 388.5C106.7 398.1 151.6 410.1 308 452C341.3 461 371.2 468.5 374.5 468.7C391.7 470.1 409.9 460.7 418.7 445.9C420.7 442.5 425.6 428.6 432 408.1C437.6 390.3 442.4 375.1 442.7 374.3C443.1 373.2 417 373 284.9 373C132.2 373 126.2 372.9 117.1 371C92.0001 365.8 69.7001 347.7 60.3001 324.7C53.4001 307.9 53.7001 312.5 53.1001 227.3L52.5001 150.2L26.7001 236.5Z" fill="#FAB6B6"/>
</svg>
