<?xml version="1.0" standalone="no"?>
<!DOCTYPE svg PUBLIC "-//W3C//DTD SVG 20010904//EN"
 "http://www.w3.org/TR/2001/REC-SVG-20010904/DTD/svg10.dtd">
<svg version="1.0" xmlns="http://www.w3.org/2000/svg"
 width="512.000000pt" height="512.000000pt" viewBox="0 0 512.000000 512.000000"
 preserveAspectRatio="xMidYMid meet">

<g transform="translate(0.000000,512.000000) scale(0.100000,-0.100000)"
fill="#000000" stroke="none">
<path d="M1647 4565 c-107 -21 -225 -68 -312 -126 -89 -60 -208 -184 -255
-268 -33 -59 -36 -62 -68 -57 -58 9 -213 -13 -298 -43 -333 -115 -554 -426
-554 -781 0 -210 71 -387 215 -539 47 -49 85 -94 85 -100 0 -6 -38 -155 -84
-332 l-85 -321 54 -124 c30 -68 52 -131 48 -140 -3 -8 -46 -42 -95 -75 -49
-33 -92 -67 -95 -75 -3 -8 15 -59 41 -114 25 -54 44 -104 41 -112 -3 -7 -46
-39 -94 -71 -49 -32 -92 -65 -95 -74 -4 -8 14 -58 39 -111 27 -56 43 -103 40
-114 -4 -10 -42 -37 -86 -60 -49 -27 -81 -51 -85 -63 -3 -14 23 -70 78 -170
70 -125 88 -150 108 -153 26 -3 317 159 350 195 10 10 123 385 263 867 136
467 252 853 259 858 7 4 23 8 36 8 41 0 175 50 242 90 128 75 239 185 317 316
52 86 52 90 -9 97 -97 12 -233 66 -328 130 -59 41 -69 55 -70 99 0 28 6 41 26
57 42 33 88 27 160 -20 75 -49 181 -87 269 -98 65 -7 66 -7 73 18 4 14 7 87 6
161 0 125 -3 142 -33 230 -17 52 -50 126 -73 164 -84 142 -254 288 -394 338
-35 13 -64 27 -64 31 0 19 63 97 124 154 72 68 192 133 291 158 126 32 315 11
432 -48 124 -63 227 -165 293 -288 l30 -56 -60 -22 c-77 -28 -169 -112 -205
-186 -41 -82 -45 -144 -24 -370 10 -110 17 -200 16 -201 -1 -1 -25 -13 -53
-27 -59 -30 -157 -57 -205 -57 -63 0 -73 -8 -107 -83 -18 -40 -32 -76 -32 -81
0 -5 52 -6 118 -3 108 4 192 23 283 61 13 6 17 -21 32 -201 16 -192 20 -213
47 -269 27 -55 112 -143 789 -813 734 -727 760 -751 796 -751 43 0 -13 -53
837 786 532 524 523 515 484 569 -15 20 -647 650 -1201 1196 -256 253 -320
310 -367 333 -63 29 -86 32 -662 84 -235 21 -301 30 -307 42 -4 8 -24 51 -44
95 -98 217 -313 392 -548 449 -99 24 -237 28 -330 11z m-514 -483 c37 -16 69
-31 72 -33 2 -3 -4 -27 -14 -55 -37 -99 -37 -99 23 -133 95 -53 145 -142 146
-257 0 -172 -135 -293 -314 -282 -167 11 -281 134 -280 303 1 109 64 203 169
251 48 22 52 27 63 72 14 62 51 162 61 162 3 0 37 -13 74 -28z m2468 -1045
c22 -17 39 -51 39 -78 0 -16 -63 -86 -217 -242 -120 -120 -227 -223 -238 -229
-55 -31 -125 9 -125 71 0 33 16 52 228 263 210 211 230 228 262 228 19 0 42
-6 51 -13z m497 -493 c13 -14 22 -38 22 -56 0 -27 -22 -54 -157 -191 -225
-227 -306 -297 -344 -297 -43 0 -79 39 -79 86 0 35 11 49 168 207 92 93 198
196 236 229 61 53 72 59 100 54 17 -3 41 -17 54 -32z"/>
<path d="M1004 3730 c-39 -15 -74 -68 -74 -111 0 -59 24 -98 76 -120 151 -67
251 150 104 226 -32 16 -73 18 -106 5z"/>
</g>
</svg>
