<svg width="512" height="512" xmlns="http://www.w3.org/2000/svg" version="1.0" preserveAspectRatio="xMidYMid meet">
 <g>
  <title>Layer 1</title>
  <g transform="translate(0 512) scale(0.1 -0.1)" fill="#000000" id="svg_1">
   <path fill="#114599" d="m1770,4609c-87,-13 -217,-59 -286,-100c-78,-47 -173,-129 -209,-179l-30,-41l-82,5c-270,17 -524,-77 -713,-264c-186,-183 -273,-396 -273,-665c-1,-103 4,-149 22,-220c39,-153 111,-289 212,-399l48,-53l-79,-304c-44,-167 -80,-310 -80,-316c0,-7 18,-53 40,-102c22,-49 40,-93 40,-97c0,-5 -37,-34 -81,-64c-45,-30 -85,-63 -90,-72c-16,-31 -9,-64 32,-152c22,-48 39,-89 37,-91c-1,-1 -37,-24 -78,-50c-41,-26 -81,-54 -87,-63c-22,-27 -15,-66 26,-156l40,-85l-76,-41c-84,-45 -102,-63 -103,-100c0,-29 232,-467 262,-492c11,-10 29,-18 40,-18c24,0 433,235 469,270c23,21 58,135 249,805c123,429 229,801 237,827c13,46 13,46 85,68c233,71 450,263 562,496l39,80l74,12c40,6 101,23 135,36c34,14 63,24 65,23c1,-2 11,-97 22,-211c17,-178 23,-216 45,-260c20,-41 177,-203 768,-793c650,-650 747,-743 773,-743c26,0 108,79 648,618c340,339 625,629 633,644c8,15 14,37 14,50c0,17 -188,211 -722,746c-398,398 -742,737 -765,753c-24,16 -60,36 -82,43c-21,8 -225,31 -452,51c-228,20 -425,38 -438,41c-13,3 -26,14 -29,27c-13,50 -94,196 -142,254c-99,123 -257,223 -413,263c-94,24 -222,32 -307,19zm204,-164c121,-12 287,-100 371,-197c40,-48 99,-141 109,-175c6,-18 1,-23 -41,-37c-101,-34 -197,-135 -228,-239c-19,-63 -19,-151 0,-332c8,-77 15,-148 15,-158c0,-22 -103,-73 -166,-83l-41,-6l9,63c12,82 3,212 -22,317c-62,259 -243,483 -488,604c-78,39 -81,42 -66,60c57,62 194,144 284,168c52,15 156,28 185,24c11,-2 46,-5 79,-9zm-838,-357c-8,-18 -19,-56 -26,-85c-10,-46 -16,-53 -46,-63c-58,-19 -140,-103 -164,-168c-41,-108 -16,-225 67,-304c115,-111 280,-114 397,-7c147,134 122,369 -48,460c-25,13 -46,29 -46,35c0,16 29,107 39,123c11,18 152,-48 238,-112c120,-89 228,-253 269,-407c19,-70 26,-271 11,-324c-8,-28 -9,-28 -60,-22c-68,9 -167,50 -242,98c-47,31 -66,38 -90,34c-54,-11 -83,-75 -55,-126c21,-40 207,-137 305,-160c28,-7 56,-14 63,-16c20,-6 -39,-110 -107,-192c-110,-130 -239,-213 -396,-252c-44,-11 -88,-29 -98,-39c-12,-11 -102,-310 -257,-850c-131,-458 -242,-837 -247,-842c-23,-23 -299,-177 -305,-171c-4,4 -38,64 -77,135l-69,127l70,41c89,52 108,72 108,109c0,17 -18,66 -40,110c-22,44 -40,83 -40,87c0,5 32,28 71,52c126,78 132,96 69,221c-22,44 -40,83 -40,87c0,5 28,26 63,47c136,86 141,102 70,258c-26,57 -46,110 -46,119c1,9 38,156 82,327c47,181 78,318 74,329c-3,10 -43,57 -88,104c-95,100 -154,207 -186,338c-18,70 -21,106 -17,210c4,108 9,139 35,214c40,113 83,184 163,270c143,153 324,235 522,236l87,1l-13,-32zm1874,-239c293,-26 468,-46 491,-56c24,-10 262,-241 727,-706l692,-692l-548,-548l-547,-547l-696,697c-445,446 -699,707 -702,724c-4,14 -27,240 -52,502c-50,527 -50,527 8,594c44,50 85,73 132,73c22,0 245,-18 495,-41zm-1756,-90c61,-53 58,-130 -6,-184c-21,-17 -42,-25 -69,-25c-80,0 -129,49 -129,131c0,33 6,47 34,75c30,30 40,34 85,34c42,0 56,-5 85,-31z" id="svg_2"/>
   <path fill="#114599" d="m3544,3091c-21,-16 -126,-116 -231,-223c-175,-177 -193,-198 -193,-229c0,-68 59,-106 117,-75c15,8 121,109 236,224c192,193 207,212 207,245c0,27 -7,41 -31,61c-39,33 -57,33 -105,-3z" id="svg_3"/>
   <path fill="#114599" d="m3814,2428c-123,-121 -225,-232 -229,-245c-14,-59 53,-113 111,-88c16,7 125,109 242,227c234,236 238,243 183,299c-56,56 -62,52 -307,-193z" id="svg_4"/>
  </g>
 </g>

</svg>