<svg width="36" height="46" viewBox="0 0 36 46" fill="none" xmlns="http://www.w3.org/2000/svg">
<path d="M18.001 12.583C18.619 12.583 19.2232 12.7663 19.7371 13.1097C20.251 13.453 20.6516 13.9411 20.8881 14.5121C21.1246 15.0831 21.1865 15.7115 21.0659 16.3177C20.9454 16.9239 20.6477 17.4807 20.2107 17.9177C19.7736 18.3548 19.2168 18.6524 18.6106 18.773C18.0044 18.8935 17.3761 18.8316 16.8051 18.5951C16.2341 18.3586 15.746 17.9581 15.4026 17.4442C15.0593 16.9303 14.876 16.3261 14.876 15.708C14.8615 15.2937 14.9324 14.8809 15.0843 14.4951C15.2362 14.1094 15.4658 13.7591 15.759 13.466C16.0521 13.1729 16.4024 12.9432 16.7881 12.7913C17.1738 12.6394 17.5867 12.5685 18.001 12.583V12.583ZM18.001 8.41602C16.5588 8.41602 15.1489 8.84368 13.9498 9.64494C12.7506 10.4462 11.816 11.585 11.2641 12.9175C10.7121 14.2499 10.5677 15.7161 10.8491 17.1306C11.1305 18.5451 11.825 19.8444 12.8448 20.8642C13.8646 21.884 15.1639 22.5785 16.5784 22.8599C17.9929 23.1412 19.4591 22.9968 20.7915 22.4449C22.1239 21.893 23.2628 20.9584 24.064 19.7592C24.8653 18.5601 25.293 17.1502 25.293 15.708C25.293 13.7741 24.5247 11.9193 23.1572 10.5518C21.7897 9.18428 19.9349 8.41602 18.001 8.41602V8.41602Z" fill="#333B5D"/>
<path d="M18 4.25001C25.708 4.25001 31.542 10.5 31.542 18.833C31.542 27.166 22.584 36.233 18 40.916C13.417 36.229 4.45899 26.646 4.45899 18.833C4.45899 11.02 10.292 4.25001 18 4.25001ZM18 0.0830078C7.69199 0.0830078 0.291992 8.521 0.291992 18.833C0.291992 29.145 12.271 41.021 16.542 45.291C16.7274 45.4931 16.9528 45.6545 17.2038 45.7649C17.4549 45.8754 17.7262 45.9324 18.0005 45.9324C18.2748 45.9324 18.5461 45.8754 18.7971 45.7649C19.0482 45.6545 19.2736 45.4931 19.459 45.291C23.73 41.02 35.709 29.353 35.709 18.833C35.709 8.313 28.313 0.0830078 18 0.0830078Z" fill="#333B5D"/>
</svg>
