<svg width="159" height="159" viewBox="0 0 159 159" fill="none" xmlns="http://www.w3.org/2000/svg">
<path d="M18.167 84.4688H104.188C105.638 84.4688 106.828 83.9771 107.76 82.9937C108.691 82.0103 109.157 80.8198 109.157 79.4224C109.157 78.0249 108.691 76.8604 107.76 75.9287C106.828 74.9971 105.638 74.5312 104.188 74.5312H18.4775L36.4893 56.5195C37.4209 55.5879 37.8867 54.4233 37.8867 53.0259C37.8867 51.6284 37.4209 50.4639 36.4893 49.5322C35.7646 48.9111 34.9883 48.4712 34.1602 48.2124C33.332 47.9536 32.478 47.9536 31.5981 48.2124C30.7183 48.4712 29.9678 48.9111 29.3467 49.5322L0 79.6553L29.3467 109.778C29.8643 110.192 30.4336 110.529 31.0547 110.788C31.6758 111.046 32.2969 111.176 32.918 111.176C34.2637 111.176 35.4541 110.71 36.4893 109.778C36.7998 109.468 37.0586 109.105 37.2656 108.691C37.4727 108.277 37.6279 107.863 37.7314 107.449C37.835 107.035 37.8867 106.621 37.8867 106.207C37.8867 105.793 37.835 105.379 37.7314 104.965C37.6279 104.551 37.4727 104.137 37.2656 103.723C37.0586 103.309 36.7998 102.946 36.4893 102.636L18.167 84.4688ZM149.062 0H64.5938C61.7988 0 59.4438 0.95752 57.5288 2.87256C55.6138 4.7876 54.6562 7.14258 54.6562 9.9375V54.6562H64.5938V15.9932C64.5938 14.958 64.8525 13.9746 65.3701 13.043C65.8877 12.1113 66.6123 11.3608 67.5439 10.7915C68.4756 10.2222 69.5107 9.9375 70.6494 9.9375H142.852C144.508 9.9375 145.905 10.5327 147.044 11.7231C148.183 12.9136 148.752 14.3369 148.752 15.9932L148.907 143.007C148.907 144.663 148.338 146.086 147.199 147.277C146.061 148.467 144.663 149.062 143.007 149.062H70.6494C68.9932 149.062 67.5698 148.467 66.3794 147.277C65.189 146.086 64.5938 144.663 64.5938 143.007V104.188H54.6562V149.062C54.6562 151.857 55.6138 154.212 57.5288 156.127C59.4438 158.042 61.7988 159 64.5938 159H149.062C149.684 159 150.331 158.922 151.003 158.767C151.676 158.612 152.297 158.431 152.867 158.224C153.436 158.017 154.005 157.732 154.575 157.37C155.144 157.007 155.636 156.593 156.05 156.127C156.464 155.662 156.852 155.17 157.214 154.652C157.577 154.135 157.887 153.565 158.146 152.944C158.405 152.323 158.612 151.702 158.767 151.081C158.922 150.46 159 149.787 159 149.062V9.9375C159 5.90039 157.188 2.9502 153.565 1.08691C152.116 0.362305 150.615 0 149.062 0Z" fill="#707A8A"/>
</svg>
