<svg width="512" height="512" viewBox="0 0 512 512" fill="none" xmlns="http://www.w3.org/2000/svg">
<path d="M175 71.8999C132.4 80.8999 99.8001 112 88.2001 154.8C85.8001 163.6 85.6001 166.2 85.6001 182.5C85.6001 199 85.9001 201.3 88.4001 210.5C97.7001 244.6 123.1 273.4 155.3 286.6C172 293.4 193.6 296.3 210.3 294.1C258.5 287.7 296.7 252.9 307.6 205.5C310.2 194.6 310.1 171.9 307.6 160C297.8 114.2 262.2 79.3999 217.1 71.4999C205.6 69.4999 185.7 69.6999 175 71.8999Z" fill="#FAB6B6"/>
<path d="M342.3 142C332.3 143.4 323.8 146.1 324.4 147.7C328.8 159.1 330 192.4 326.6 208C323.1 224.3 316.5 240.2 307.3 254.5C304.7 258.4 303.2 261.6 303.9 261.8C304.5 262 310.3 265.7 316.7 270C335.9 282.7 351.4 296.7 367.2 315.8L369.9 319L378.5 316.5C439.2 298.9 462.9 226.2 424.2 176C408.5 155.7 384.1 143 357.7 141.6C352.6 141.4 345.7 141.5 342.3 142Z" fill="#FAB6B6"/>
<path d="M96.1001 281C82.4001 289.2 69.3 299.5 57 311.9C32.5 336.5 15.8001 364.8 6.50005 397C2.30005 411.6 -0.39995 427 0.40005 431.3C1.00005 434.7 4.60005 438.8 8.70005 440.9C10.3001 441.7 61.6 442 197.8 442H384.7L388.1 439.7C390 438.5 392.3 435.8 393.3 433.7C395.1 430.1 395.1 429.6 393.5 419.7C387.2 382 369.9 346.6 343.8 318.3C328.7 302 312.2 288.6 294.7 278.6L289.9 275.9L284.4 280.9C268.8 295.2 245.2 306.9 222.5 311.6C210.3 314.2 185 314.2 173.1 311.7C148.8 306.5 127.4 296.1 110.9 281.3C107.6 278.4 104.8 276 104.7 276C104.6 276 100.7 278.3 96.1001 281Z" fill="#FAB6B6"/>
<path d="M423.5 313.7C414.8 321.5 400.4 329.5 388 333.5C385 334.5 382.3 335.4 382.2 335.6C382 335.7 384.3 340.3 387.3 345.7C398.3 365.6 406.6 387.7 410.8 408.6C414.5 426.3 414.6 432.1 411.3 440.6C410.9 441.8 417.4 442 458.2 442H505.5L508.2 439.5C512.1 435.9 512.5 433.1 510.5 422.7C506.4 401.3 496 376.9 483.3 359C475.8 348.5 459 331 449.3 323.6C443 318.9 429.1 310 428 310C427.7 310.1 425.7 311.7 423.5 313.7Z" fill="#FAB6B6"/>
</svg>
