<svg width="512" height="372" viewBox="0 0 512 372" fill="none" xmlns="http://www.w3.org/2000/svg">
<mask id="path-1-inside-1_952_91" fill="white">
<path d="M174.74 1.78274C132.14 10.7827 99.5403 41.8827 87.9403 84.6827C85.5403 93.4827 85.3403 96.0827 85.3403 112.383C85.3403 128.883 85.6403 131.183 88.1403 140.383C97.4403 174.483 122.84 203.283 155.04 216.483C171.74 223.283 193.34 226.183 210.04 223.983C258.24 217.583 296.44 182.783 307.34 135.383C309.94 124.483 309.84 101.783 307.34 89.8827C297.54 44.0827 261.94 9.28274 216.84 1.38274C205.34 -0.617264 185.44 -0.417264 174.74 1.78274Z"/>
</mask>
<path d="M174.74 1.78274C132.14 10.7827 99.5403 41.8827 87.9403 84.6827C85.5403 93.4827 85.3403 96.0827 85.3403 112.383C85.3403 128.883 85.6403 131.183 88.1403 140.383C97.4403 174.483 122.84 203.283 155.04 216.483C171.74 223.283 193.34 226.183 210.04 223.983C258.24 217.583 296.44 182.783 307.34 135.383C309.94 124.483 309.84 101.783 307.34 89.8827C297.54 44.0827 261.94 9.28274 216.84 1.38274C205.34 -0.617264 185.44 -0.417264 174.74 1.78274Z" stroke="#707A8A" stroke-width="40" mask="url(#path-1-inside-1_952_91)"/>
<mask id="path-2-inside-2_952_91" fill="white">
<path d="M342.041 71.8828C332.041 73.2828 323.541 75.9828 324.141 77.5828C328.541 88.9828 329.741 122.283 326.341 137.883C322.841 154.183 316.241 170.083 307.041 184.383C304.441 188.283 302.941 191.483 303.641 191.683C304.241 191.883 310.041 195.583 316.441 199.883C335.641 212.583 351.141 226.583 366.941 245.683L369.641 248.883L378.241 246.383C438.941 228.783 462.641 156.083 423.941 105.883C408.241 85.5828 383.841 72.8828 357.441 71.4828C352.341 71.2828 345.441 71.3828 342.041 71.8828Z"/>
</mask>
<path d="M342.041 71.8828C332.041 73.2828 323.541 75.9828 324.141 77.5828C328.541 88.9828 329.741 122.283 326.341 137.883C322.841 154.183 316.241 170.083 307.041 184.383C304.441 188.283 302.941 191.483 303.641 191.683C304.241 191.883 310.041 195.583 316.441 199.883C335.641 212.583 351.141 226.583 366.941 245.683L369.641 248.883L378.241 246.383C438.941 228.783 462.641 156.083 423.941 105.883C408.241 85.5828 383.841 72.8828 357.441 71.4828C352.341 71.2828 345.441 71.3828 342.041 71.8828Z" stroke="#707A8A" stroke-width="40" mask="url(#path-2-inside-2_952_91)"/>
<mask id="path-3-inside-3_952_91" fill="white">
<path d="M95.8403 210.883C82.1403 219.083 69.0403 229.383 56.7403 241.783C32.2403 266.383 15.5403 294.683 6.24028 326.883C2.04028 341.483 -0.659715 356.883 0.140285 361.183C0.740285 364.583 4.34028 368.683 8.44028 370.783C10.0403 371.583 61.3403 371.883 197.54 371.883H384.44L387.84 369.583C389.74 368.383 392.04 365.683 393.04 363.583C394.84 359.983 394.84 359.483 393.24 349.583C386.94 311.883 369.64 276.483 343.54 248.183C328.44 231.883 311.94 218.483 294.44 208.483L289.64 205.783L284.14 210.783C268.54 225.083 244.94 236.783 222.24 241.483C210.04 244.083 184.74 244.083 172.84 241.583C148.54 236.383 127.14 225.983 110.64 211.183C107.34 208.283 104.54 205.883 104.44 205.883C104.34 205.883 100.44 208.183 95.8403 210.883Z"/>
</mask>
<path d="M95.8403 210.883C82.1403 219.083 69.0403 229.383 56.7403 241.783C32.2403 266.383 15.5403 294.683 6.24028 326.883C2.04028 341.483 -0.659715 356.883 0.140285 361.183C0.740285 364.583 4.34028 368.683 8.44028 370.783C10.0403 371.583 61.3403 371.883 197.54 371.883H384.44L387.84 369.583C389.74 368.383 392.04 365.683 393.04 363.583C394.84 359.983 394.84 359.483 393.24 349.583C386.94 311.883 369.64 276.483 343.54 248.183C328.44 231.883 311.94 218.483 294.44 208.483L289.64 205.783L284.14 210.783C268.54 225.083 244.94 236.783 222.24 241.483C210.04 244.083 184.74 244.083 172.84 241.583C148.54 236.383 127.14 225.983 110.64 211.183C107.34 208.283 104.54 205.883 104.44 205.883C104.34 205.883 100.44 208.183 95.8403 210.883Z" stroke="#707A8A" stroke-width="40" mask="url(#path-3-inside-3_952_91)"/>
<mask id="path-4-inside-4_952_91" fill="white">
<path d="M423.24 243.583C414.54 251.383 400.14 259.383 387.74 263.383C384.74 264.383 382.04 265.283 381.94 265.483C381.74 265.583 384.04 270.183 387.04 275.583C398.04 295.483 406.34 317.583 410.54 338.483C414.24 356.183 414.34 361.983 411.04 370.483C410.64 371.683 417.14 371.883 457.94 371.883H505.24L507.94 369.383C511.84 365.783 512.24 362.983 510.24 352.583C506.14 331.183 495.74 306.783 483.04 288.883C475.54 278.383 458.74 260.883 449.04 253.483C442.74 248.783 428.84 239.883 427.74 239.883C427.44 239.983 425.44 241.583 423.24 243.583Z"/>
</mask>
<path d="M423.24 243.583C414.54 251.383 400.14 259.383 387.74 263.383C384.74 264.383 382.04 265.283 381.94 265.483C381.74 265.583 384.04 270.183 387.04 275.583C398.04 295.483 406.34 317.583 410.54 338.483C414.24 356.183 414.34 361.983 411.04 370.483C410.64 371.683 417.14 371.883 457.94 371.883H505.24L507.94 369.383C511.84 365.783 512.24 362.983 510.24 352.583C506.14 331.183 495.74 306.783 483.04 288.883C475.54 278.383 458.74 260.883 449.04 253.483C442.74 248.783 428.84 239.883 427.74 239.883C427.44 239.983 425.44 241.583 423.24 243.583Z" stroke="#707A8A" stroke-width="40" mask="url(#path-4-inside-4_952_91)"/>
</svg>
