<svg width="512" height="512" viewBox="0 0 512 512" fill="none" xmlns="http://www.w3.org/2000/svg">
<path d="M245.3 33.5008C237.2 35.7008 232.1 38.7008 226 44.9008C212.8 58.0008 209.8 77.0008 218.1 93.8008C219.8 97.3008 221 100.201 220.8 100.401C220.7 100.501 217.1 101.601 213 102.901C187.4 110.801 161 130.001 144.3 152.701C136.6 163.101 128.1 179.801 124.1 192.201C118.1 211.201 117.8 214.701 117 271.501C116.2 329.901 116.4 328.901 108 346.801C102.2 359.101 96.3999 366.601 78.6999 384.701C66.0999 397.601 62.7999 401.501 62.3999 404.201C61.7999 408.301 64.7999 413.601 68.5999 415.001C72.0999 416.401 439.9 416.401 443.4 415.001C447.2 413.601 450.2 408.301 449.6 404.201C449.2 401.501 445.9 397.601 433.3 384.701C415.6 366.601 409.8 359.101 404 346.801C395.6 328.901 395.8 329.901 395 271.501C394.2 214.101 393.9 210.401 387.5 191.301C380.7 170.801 369.4 152.501 354.5 137.501C344.2 127.101 337.9 122.101 325.9 115.001C317.7 110.101 300.1 102.601 294 101.401C292.4 101.001 291 100.501 291 100.101C291 99.8008 292.3 96.9008 293.9 93.8008C310.3 61.4008 280.2 24.1008 245.3 33.5008ZM265.8 55.9008C281.6 64.0008 280.4 87.5008 263.8 94.4008C250.4 100.001 235 89.7008 235 75.0008C235 58.5008 251.2 48.4008 265.8 55.9008Z" fill="#FAB6B6"/>
<path d="M204 437.8C204 440.8 207.6 449.6 210.8 454.6C223.6 474.2 246 483.6 267.7 478.5C279.5 475.7 289.3 469.7 296.9 460.5C301.4 455.2 306.4 445.6 307.5 440.2L308.2 437H256.1C227.4 437 204 437.4 204 437.8Z" fill="#FAB6B6"/>
</svg>
