<svg width="512" height="512" viewBox="0 0 512 512" fill="none" xmlns="http://www.w3.org/2000/svg">
<path d="M243 12.8004C235.7 15.2004 230.5 18.7004 224.7 24.9004C212.7 37.7004 210.1 56.6004 218.1 72.4004C219.7 75.7004 221 78.4004 221 78.5004C221 78.7004 219.3 79.1004 217.3 79.5004C203.6 82.0004 178.5 93.6004 163.3 104.3C152.6 111.9 135.2 128.9 127.8 139C112.9 159.4 103.1 182 98.3 207C97 213.9 96.5 225.5 96.1 267.5L95.4 319.5L92.2 328.9C87.2 343.3 83.4 348.6 64 368.5C44.2 388.8 42 392.2 41.3 403.5C40.9 409 41.3 411.7 42.9 416.1C45.6 423.3 51.8 430.3 58.4 433.8L63.5 436.5L122.6 436.8L181.7 437.1L183.4 443.8C187 458.6 197.2 474.9 208.4 484.1C216.1 490.4 230.3 497.3 239.7 499.4C248.9 501.4 263.1 501.4 272.3 499.4C287.5 496 303.3 486.4 312.9 474.8C319.2 467.2 326.4 452.9 328.6 443.8L330.3 437.1L389.4 436.8L448.5 436.5L453.6 433.8C460.2 430.3 466.4 423.3 469.1 416.1C470.7 411.7 471.1 409 470.7 403.5C470 392.2 467.8 388.7 448.4 369C431.1 351.3 425.8 344.5 421.9 334.8C416.6 321.7 416.7 322.7 416 267.5C415.3 210.2 414.9 206.2 407.9 184.7C391.9 135.1 350.1 95.0004 300 81.0004C295.3 79.7004 291.4 78.5004 291.2 78.5004C291.1 78.4004 292.3 75.7004 293.9 72.5004C302.6 55.3004 298.9 35.6004 284.6 22.2004C276.2 14.4004 269.8 11.8004 257.5 11.3004C250.7 11.1004 247.1 11.4004 243 12.8004ZM264.5 33.9004C280.3 41.0004 281.2 63.5004 266 71.9004C255.3 77.9004 241.3 73.1004 236.5 61.8004C229.2 44.2004 247.4 26.1004 264.5 33.9004ZM272 97.0004C299.2 100.4 324.1 111.1 345 128.5C364.5 144.8 379.2 166.5 387.5 191.3C393.9 210.5 394.2 214.1 395 271.5C395.8 329.9 395.6 328.9 404 346.8C409.8 359.1 415.6 366.6 433.3 384.7C445.9 397.6 449.2 401.5 449.6 404.2C450.2 408.3 447.2 413.6 443.4 415C439.9 416.4 72.1 416.4 68.6 415C64.8 413.6 61.8 408.3 62.4 404.2C62.8 401.5 66.1 397.6 78.7 384.7C96.4 366.6 102.2 359.1 108 346.8C116.4 328.9 116.2 329.9 117 271.5C117.8 214 118.1 210.4 124.5 191.2C145.4 128.7 207.4 89.1004 272 97.0004ZM307.5 440.2C306.4 445 303.4 451.5 300.1 456.3C277.9 488.3 232.3 487.5 210.8 454.6C207.6 449.6 204 440.8 204 437.8C204 437.4 227.4 437 256.1 437H308.2L307.5 440.2Z" fill="#707A8A"/>
</svg>
