<svg width="512" height="512" viewBox="0 0 512 512" fill="none" xmlns="http://www.w3.org/2000/svg">
<path d="M328.5 1.29975C325.8 2.09975 321 3.89975 318 5.49975C315 6.99975 261.6 37.8997 199.3 74.0997L86.2002 140H62.8002C37.2002 140 33.0002 140.6 23.5002 146C12.6002 152.2 3.30015 165.4 1.00015 177.9C-0.299848 185.1 -0.399848 465.3 1.00015 473.4C4.00015 492.1 19.9002 508 38.6002 511C42.3002 511.6 121 512 245 512C465.2 512 453.5 512.3 464.6 505.9C475 500 482.5 490.7 486.6 478.8C488.2 474.3 488.5 470.2 488.5 450.3C488.5 428.4 488.4 427 486.4 424.3C482.4 419 482.9 419 434.4 419C398.6 419 387.5 418.7 380.6 417.5C348.1 411.8 322.5 391.4 309.8 361C304.3 348 303.5 343.3 303.5 325.5C303.5 311.9 303.8 308.4 305.8 301.7C315.3 268.9 339.2 245.3 372.5 235.7C379 233.8 383.4 233.6 430.2 233.1C479.6 232.5 480.9 232.4 483.7 230.4C488.6 226.7 489.2 222.9 488.7 199C488.1 171.2 486.3 165.4 475.2 154.2C468.5 147.5 462 143.8 452.5 141.3L445.6 139.5L411.8 80.4997C377.9 21.0997 373.2 13.9997 364.6 8.09975C354.9 1.39975 339.3 -1.50025 328.5 1.29975ZM348.5 25.5997C352.5 27.4997 359.3 34.0997 358.3 35.0997C357.8 35.4997 317.2 59.1997 267.9 87.8997L178.4 140H156C142.4 140 134 139.6 134.6 139.1C136.7 137 328.6 25.8997 332.4 24.4997C337.1 22.7997 343.5 23.1997 348.5 25.5997ZM405.9 117.1C412.6 128.7 418 138.6 418 139.1C418 139.6 396.4 140 367.8 140C340.2 140 317.9 139.7 318.3 139.4C319.3 138.3 392.3 95.9997 393.1 95.9997C393.5 95.9997 399.3 105.5 405.9 117.1Z" fill="#FAB6B6"/>
<path d="M383.2 257.1C358.9 261.2 337 280.6 329.3 304.7C317.4 342.2 339.2 382.2 377.5 393.2C385.4 395.5 386.3 395.5 435 395.5H484.5L491 392.4C501.7 387.3 508.7 378.7 511 368C511.8 364.2 512.1 350.5 511.8 322.5L511.5 282.5L508.8 276.8C505.4 269.5 498.5 262.6 491.2 259.2L485.5 256.5L437 256.3C410.3 256.3 386.1 256.6 383.2 257.1ZM404.8 304.6C415.5 309 421.4 322.2 417.6 332.9C415.2 339.6 411.6 343.5 405.5 346.6C393.9 352.2 380.9 347.6 374.8 335.6C370.8 327.8 373 315 379.3 309.3C385.9 303.2 396.7 301.2 404.8 304.6Z" fill="#FAB6B6"/>
</svg>
