<svg width="140" height="141" viewBox="0 0 140 141" fill="none" xmlns="http://www.w3.org/2000/svg">
<path d="M89.9133 0.290237C89.1743 0.509196 87.8605 1.00186 87.0395 1.43977C86.2184 1.85032 71.6029 10.3076 54.5515 20.2154L23.5963 38.2521H17.1917C10.1851 38.2521 9.03555 38.4164 6.43542 39.8943C3.45211 41.5913 0.906719 45.2041 0.277214 48.6253C-0.0785932 50.5959 -0.105963 127.286 0.277214 129.503C1.09831 134.621 5.45011 138.973 10.5683 139.794C11.5809 139.958 33.121 140.068 67.0595 140.068C127.328 140.068 124.126 140.15 127.164 138.398C129.928 136.838 131.953 134.347 133.185 131.145C133.623 129.941 133.678 128.6 133.787 118.692L133.897 107.58L134.827 107.115C136.36 106.403 138.413 104.268 139.234 102.599L140 101.066V89.1599V77.2541L139.261 75.694C138.413 73.8602 136.606 71.9444 135.019 71.2054L133.897 70.6853L133.787 59.6006C133.65 47.8316 133.623 47.6126 132.227 44.8483C131.433 43.3156 128.806 40.7428 127.109 39.8396C126.37 39.429 124.892 38.8816 123.852 38.6079L121.963 38.1153L112.712 21.9671C103.434 5.70946 102.148 3.7662 99.7938 2.15138C97.1389 0.317607 92.8692 -0.476117 89.9133 0.290237ZM95.3872 6.9411C96.482 7.46113 98.3432 9.26753 98.0695 9.54123C97.9326 9.65071 86.8205 16.1373 73.3272 23.9925L48.8312 38.2521H42.7004C38.9781 38.2521 36.679 38.1427 36.8433 38.0058C37.418 37.431 89.9407 7.02321 90.9807 6.64003C92.2671 6.17474 94.0187 6.28423 95.3872 6.9411ZM102.996 17.8069L104.529 20.4618L103.927 20.845C103.598 21.0639 96.7284 25.0599 88.6816 29.7401L74.0662 38.2521H67.908C64.5415 38.2521 61.8592 38.17 61.9687 38.0606C62.2151 37.8142 101.381 14.9878 101.436 15.0699C101.463 15.0973 102.148 16.3289 102.996 17.8069ZM111.097 31.9845C112.931 35.1594 114.409 37.869 114.409 38.0058C114.409 38.1427 108.497 38.2521 100.67 38.2521C93.1155 38.2521 87.0121 38.17 87.1216 38.0879C87.3953 37.7869 107.375 26.2094 107.594 26.2094C107.704 26.2094 109.291 28.8096 111.097 31.9845ZM122.921 44.8756C124.344 45.2862 126.124 46.8736 126.753 48.2147C127.218 49.2548 127.273 50.2127 127.273 59.6553V70.0011H117.091C111.316 70.0011 106.116 70.1379 105.131 70.3022C98.2611 71.397 92.2945 76.5972 90.1322 83.3302C86.9026 93.4844 92.6776 104.295 103.051 107.47C105.186 108.127 105.514 108.127 116.27 108.264L127.273 108.374V118.692C127.273 128.983 127.273 129.038 126.644 130.242C125.795 131.829 124.098 133.116 122.292 133.472C121.252 133.691 104.802 133.773 65.9647 133.718C13.0315 133.636 11.0609 133.608 10.1303 133.116C8.78922 132.404 7.7218 131.364 7.03755 130.078L6.43542 128.983V89.1599C6.43542 50.5959 6.46279 49.3095 6.95544 48.2969C7.63969 46.901 8.8987 45.6694 10.2672 45.0672C11.3072 44.5746 13.6884 44.5472 66.6216 44.5472C107.786 44.5472 122.155 44.6293 122.921 44.8756ZM131.625 76.652C132.145 76.8435 132.829 77.3362 133.13 77.7467C133.678 78.5131 133.705 78.7868 133.705 88.9957C133.705 97.672 133.623 99.6152 133.294 100.217C132.501 101.75 132.501 101.75 118.816 101.75C104.857 101.75 104.474 101.695 101.573 99.8615C94.6483 95.4003 93.6082 85.9029 99.438 80.0732C101.053 78.4584 104.118 76.8983 106.253 76.5698C108.744 76.214 130.557 76.2688 131.625 76.652Z" fill="#707A8A"/>
<path d="M105.514 83.4399C104.009 84.2336 103.297 84.9452 102.613 86.3411C101.847 87.9285 101.847 90.3371 102.586 91.7877C103.735 94.032 105.405 95.1542 107.868 95.3731C109.236 95.51 109.702 95.4279 110.988 94.7984C115.039 92.8004 115.86 87.5454 112.576 84.4526C110.851 82.8104 107.594 82.3451 105.514 83.4399Z" fill="#707A8A"/>
</svg>
