<svg width="17" height="29" viewBox="0 0 17 29" fill="none" xmlns="http://www.w3.org/2000/svg">
<path d="M11.8863 14.6048L1.01933 25.4718C0.796402 25.669 0.621657 25.9148 0.508509 26.1901C0.395361 26.4655 0.346822 26.7631 0.366617 27.0601C0.386412 27.3571 0.474015 27.6457 0.6227 27.9035C0.771385 28.1614 0.977194 28.3818 1.22433 28.5478C1.63576 28.8456 2.13924 28.9884 2.64577 28.9508C3.15229 28.9133 3.62925 28.6979 3.99233 28.3428L16.1923 16.0428C16.3912 15.8603 16.5501 15.6385 16.6587 15.3913C16.7674 15.1442 16.8235 14.8772 16.8235 14.6073C16.8235 14.3373 16.7674 14.0703 16.6587 13.8232C16.5501 13.5761 16.3912 13.3543 16.1923 13.1718L3.99233 0.871771C3.62925 0.516591 3.15229 0.301209 2.64577 0.263696C2.13924 0.226182 1.63576 0.368952 1.22433 0.666771C0.977194 0.832723 0.771385 1.05311 0.6227 1.31099C0.474015 1.56888 0.386412 1.85742 0.366617 2.15444C0.346822 2.45146 0.395361 2.74907 0.508509 3.02441C0.621657 3.29975 0.796402 3.54549 1.01933 3.74277L11.8863 14.6048Z" fill="#333B5D"/>
</svg>
