<svg width="76" height="100" viewBox="0 0 76 100" fill="none" xmlns="http://www.w3.org/2000/svg">
<path d="M2 2C0.1 3.9 0 5.3 0 52V100H38H76V52C76 5.3 75.9 3.9 74 2C72.1 0.0999985 70.7 -1.49012e-06 38 -1.49012e-06C5.3 -1.49012e-06 3.9 0.0999985 2 2ZM71.8 50.3L72 96H68H64V84V72H53H42V84V96H23H4V50.7C4 25.7 4.3 5 4.7 4.7C5.1 4.3 20.2 4.1 38.4 4.2L71.5 4.5L71.8 50.3ZM60 86V96H53H46V86V76H53H60V86Z" fill="#707A8A"/>
<path d="M12 20V28H23H34V20V12H23H12V20ZM30 20V24H23H16V20V16H23H30V20Z" fill="#707A8A"/>
<path d="M42 20V28H53H64V20V12H53H42V20ZM60 20V24H53H46V20V16H53H60V20Z" fill="#707A8A"/>
<path d="M12 40V48H23H34V40V32H23H12V40ZM30 40V44H23H16V40V36H23H30V40Z" fill="#707A8A"/>
<path d="M42 40V48H53H64V40V32H53H42V40ZM60 40V44H53H46V40V36H53H60V40Z" fill="#707A8A"/>
<path d="M12 60V68H23H34V60V52H23H12V60ZM30 60V64H23H16V60V56H23H30V60Z" fill="#707A8A"/>
<path d="M42 60V68H53H64V60V52H53H42V60ZM60 60V64H53H46V60V56H53H60V60Z" fill="#707A8A"/>
<path d="M12 80V88H23H34V80V72H23H12V80ZM30 80V84H23H16V80V76H23H30V80Z" fill="#707A8A"/>
</svg>
