<svg width="140" height="159" viewBox="0 0 140 159" fill="none" xmlns="http://www.w3.org/2000/svg">
<g clip-path="url(#clip0_982_20)">
<path d="M39.7524 45.9609V33.5391C39.7524 31.4895 41.4294 29.8125 43.479 29.8125H55.9009C57.9505 29.8125 59.6274 31.4895 59.6274 33.5391V45.9609C59.6274 48.0105 57.9505 49.6875 55.9009 49.6875H43.479C41.4294 49.6875 39.7524 48.0105 39.7524 45.9609ZM83.229 49.6875H95.6509C97.7005 49.6875 99.3774 48.0105 99.3774 45.9609V33.5391C99.3774 31.4895 97.7005 29.8125 95.6509 29.8125H83.229C81.1794 29.8125 79.5024 31.4895 79.5024 33.5391V45.9609C79.5024 48.0105 81.1794 49.6875 83.229 49.6875ZM43.479 79.5H55.9009C57.9505 79.5 59.6274 77.823 59.6274 75.7734V63.3516C59.6274 61.302 57.9505 59.625 55.9009 59.625H43.479C41.4294 59.625 39.7524 61.302 39.7524 63.3516V75.7734C39.7524 77.823 41.4294 79.5 43.479 79.5ZM83.229 79.5H95.6509C97.7005 79.5 99.3774 77.823 99.3774 75.7734V63.3516C99.3774 61.302 97.7005 59.625 95.6509 59.625H83.229C81.1794 59.625 79.5024 61.302 79.5024 63.3516V75.7734C79.5024 77.823 81.1794 79.5 83.229 79.5ZM59.6274 105.586V93.1641C59.6274 91.1145 57.9505 89.4375 55.9009 89.4375H43.479C41.4294 89.4375 39.7524 91.1145 39.7524 93.1641V105.586C39.7524 107.636 41.4294 109.312 43.479 109.312H55.9009C57.9505 109.312 59.6274 107.636 59.6274 105.586ZM83.229 109.312H95.6509C97.7005 109.312 99.3774 107.636 99.3774 105.586V93.1641C99.3774 91.1145 97.7005 89.4375 95.6509 89.4375H83.229C81.1794 89.4375 79.5024 91.1145 79.5024 93.1641V105.586C79.5024 107.636 81.1794 109.312 83.229 109.312ZM139.127 147.82V159H0.00244141V147.82C0.00244141 145.771 1.67939 144.094 3.729 144.094H9.78467V7.45312C9.78467 3.32285 13.1075 0 17.2378 0H121.892C126.022 0 129.345 3.32285 129.345 7.45312V144.094H135.401C137.45 144.094 139.127 145.771 139.127 147.82ZM24.6909 143.783H59.6274V122.977C59.6274 120.927 61.3044 119.25 63.354 119.25H75.7759C77.8255 119.25 79.5024 120.927 79.5024 122.977V143.783H114.439V15.2168L24.8462 14.9062L24.6909 143.783Z" fill="#FAB6B6"/>
</g>
<defs>
<clipPath id="clip0_982_20">
<rect width="139.13" height="159" fill="white"/>
</clipPath>
</defs>
</svg>
