<svg width="76" height="100" viewBox="0 0 76 100" fill="none" xmlns="http://www.w3.org/2000/svg">
<path d="M2 2C0.1 3.9 0 5.3 0 52V100H38H76V52C76 5.3 75.9 3.9 74 2C72.1 0.0999985 70.7 -1.49012e-06 38 -1.49012e-06C5.3 -1.49012e-06 3.9 0.0999985 2 2ZM32 20V26H23H14V20V14H23H32V20ZM62 20V26H53H44V20V14H53H62V20ZM32 40V46H23H14V40V34H23H32V40ZM62 40V46H53H44V40V34H53H62V40ZM32 60V66H23H14V60V54H23H32V60ZM62 60V66H53H44V60V54H53H62V60ZM32 80V86H23H14V80V74H23H32V80ZM62 85V96H53H44V85V74H53H62V85Z" fill="#FAB6B6"/>
</svg>
