<svg width="504" height="135" viewBox="0 0 504 135" fill="none" xmlns="http://www.w3.org/2000/svg">
<path d="M79.1305 23.4764H103.038V15.1627H87.4873V0H62.9771V8.31366H79.1305V23.4764Z" fill="#FAB6B6"/>
<path d="M63.0202 42.9464H71.3769V18.4362H56.1711V2.88574H47.8574V26.7929H63.0202V42.9464Z" fill="#FAB6B6"/>
<path d="M96.1025 54.7929H104.459V39.2856H119.622V14.7754H111.265V30.9289H96.1025V54.7929Z" fill="#FAB6B6"/>
<path d="M78.8291 48.5031H63.7525L63.3218 67.4134L71.6785 67.5857L71.937 56.8598H87.1858V32.3496H78.8291V48.5031Z" fill="#FAB6B6"/>
<path d="M135 62.9766H126.686V79.13H111.523V103.037H119.837V87.4868H135V62.9766Z" fill="#FAB6B6"/>
<path d="M111.136 63.0202H92.0532V71.3769H119.493V56.1711H132.114V47.8574H111.136V63.0202Z" fill="#FAB6B6"/>
<path d="M120.225 119.622V111.265H104.072V92.6133H80.2075V100.97H95.7149V119.622H120.225Z" fill="#FAB6B6"/>
<path d="M78.1396 67.6289V86.5392H102.65V78.1825H86.4964V67.6289H78.1396Z" fill="#FAB6B6"/>
<path d="M72.023 135V126.686H55.8696V111.523H31.9624V119.837H47.5128V135H72.023Z" fill="#FAB6B6"/>
<path d="M87.1425 132.114V108.207H71.9798V92.0537H63.623V116.564H78.8289V132.114H87.1425Z" fill="#FAB6B6"/>
<path d="M23.7347 104.071H38.8974V80.207H30.5407V95.7144H15.3779V120.225H23.7347V104.071Z" fill="#FAB6B6"/>
<path d="M47.8145 102.65H56.1712V83.6966H71.8078V75.3398H47.8145V102.65Z" fill="#FAB6B6"/>
<path d="M8.31366 55.8691H24.2948V31.9619H15.9812V47.5123H0V72.0225H8.31366V55.8691Z" fill="#FAB6B6"/>
<path d="M15.9813 78.8289H2.88623V87.1425H24.295V71.9798H42.9469V63.623H15.9813V78.8289Z" fill="#FAB6B6"/>
<path d="M30.9284 42.0419H54.7924V33.7283H39.2851V15.3779H14.7749V23.7347H30.9284V42.0419Z" fill="#FAB6B6"/>
<path d="M32.3501 56.1712H48.5036V67.1556H56.8603V47.8145H32.3501V56.1712Z" fill="#FAB6B6"/>
<path d="M179.624 87.1995C176.918 87.1995 174.583 86.8196 172.618 86.0597C170.654 85.2998 169.032 84.2434 167.753 82.8904C166.474 81.5375 165.529 79.925 164.917 78.0531C164.306 76.1812 164 74.1147 164 71.8536V47.8896H172.674V71.1308C172.674 72.6877 172.85 74.0128 173.202 75.1063C173.554 76.1998 174.036 77.0894 174.648 77.7751C175.259 78.4609 176.001 78.952 176.872 79.2486C177.743 79.5451 178.697 79.6934 179.735 79.6934C181.848 79.6934 183.562 79.0447 184.878 77.7473C186.194 76.45 186.852 74.2445 186.852 71.1308V47.8896H195.526V71.8536C195.526 74.1147 195.211 76.1905 194.581 78.0809C193.95 79.9714 192.987 81.5931 191.689 82.946C190.392 84.299 188.742 85.3461 186.741 86.0875C184.739 86.8288 182.367 87.1995 179.624 87.1995V87.1995ZM215.153 47.4448C220.935 47.4448 225.365 48.4734 228.442 50.5307C231.518 52.5879 233.056 55.785 233.056 60.1218C233.056 62.8277 232.436 65.024 231.194 66.7105C229.952 68.3971 228.164 69.7223 225.828 70.686C226.607 71.6498 227.422 72.7525 228.275 73.9943C229.127 75.236 229.971 76.5334 230.805 77.8863C231.639 79.2393 232.445 80.6479 233.223 82.112C234.002 83.5762 234.724 85.0125 235.392 86.4211H225.661C224.957 85.1608 224.244 83.882 223.521 82.5846C222.798 81.2873 222.057 80.027 221.297 78.8038C220.537 77.5805 219.786 76.4222 219.045 75.3287C218.304 74.2352 217.562 73.2437 216.821 72.354H212.54V86.4211H203.866V48.4456C205.756 48.075 207.712 47.8155 209.732 47.6672C211.752 47.5189 213.559 47.4448 215.153 47.4448V47.4448ZM215.653 54.8397C215.023 54.8397 214.458 54.8583 213.957 54.8953C213.457 54.9324 212.984 54.9695 212.54 55.0065V65.4595H214.986C218.248 65.4595 220.583 65.0518 221.992 64.2363C223.4 63.4208 224.105 62.0308 224.105 60.0662C224.105 58.1758 223.391 56.8321 221.964 56.0352C220.537 55.2382 218.433 54.8397 215.653 54.8397ZM253.796 86.9215C251.683 86.9215 249.579 86.8566 247.485 86.7269C245.391 86.5972 243.213 86.2914 240.952 85.8095V48.4456C242.731 48.112 244.677 47.8618 246.79 47.695C248.903 47.5282 250.867 47.4448 252.684 47.4448C255.13 47.4448 257.382 47.6209 259.439 47.973C261.496 48.3252 263.266 48.9275 264.749 49.78C266.232 50.6326 267.39 51.7539 268.224 53.1439C269.058 54.5339 269.475 56.2483 269.475 58.287C269.475 61.3636 267.992 63.7915 265.027 65.5707C267.473 66.4974 269.141 67.7577 270.031 69.3516C270.921 70.9455 271.365 72.7433 271.365 74.7449C271.365 78.7852 269.892 81.8247 266.945 83.8635C263.998 85.9022 259.615 86.9215 253.796 86.9215V86.9215ZM249.403 69.6296V79.5822C250.033 79.6563 250.719 79.7119 251.46 79.749C252.202 79.786 253.017 79.8046 253.907 79.8046C256.502 79.8046 258.596 79.4339 260.19 78.6926C261.784 77.9512 262.581 76.5797 262.581 74.5781C262.581 72.7989 261.913 71.5293 260.579 70.7694C259.244 70.0095 257.336 69.6296 254.852 69.6296H249.403V69.6296ZM249.403 63.0131H253.629C256.298 63.0131 258.207 62.6702 259.356 61.9845C260.505 61.2987 261.079 60.196 261.079 58.6762C261.079 57.1194 260.486 56.0259 259.3 55.3957C258.114 54.7656 256.372 54.4505 254.074 54.4505C253.332 54.4505 252.535 54.4598 251.683 54.4783C250.83 54.4969 250.07 54.5432 249.403 54.6173V63.0131V63.0131ZM304.114 86.4211C303.707 85.0867 303.253 83.7152 302.752 82.3066C302.252 80.8981 301.761 79.4895 301.279 78.0809H286.267C285.785 79.4895 285.294 80.8981 284.793 82.3066C284.293 83.7152 283.839 85.0867 283.431 86.4211H274.424C275.869 82.2696 277.241 78.4331 278.538 74.9117C279.835 71.3903 281.105 68.0728 282.347 64.9591C283.588 61.8455 284.812 58.8893 286.016 56.0908C287.221 53.2922 288.472 50.5585 289.769 47.8896H298.054C299.314 50.5585 300.556 53.2922 301.779 56.0908C303.002 58.8893 304.235 61.8455 305.477 64.9591C306.718 68.0728 307.988 71.3903 309.285 74.9117C310.583 78.4331 311.954 82.2696 313.4 86.4211H304.114V86.4211ZM293.717 56.619C293.532 57.175 293.254 57.9349 292.883 58.8986C292.512 59.8624 292.086 60.9744 291.604 62.2347C291.122 63.495 290.594 64.885 290.02 66.4047C289.445 67.9245 288.861 69.5184 288.268 71.1864H299.222C298.629 69.5184 298.054 67.9245 297.498 66.4047C296.942 64.885 296.414 63.495 295.913 62.2347C295.413 60.9744 294.977 59.8624 294.607 58.8986C294.236 57.9349 293.939 57.175 293.717 56.619ZM344.258 86.4211C341.775 82.0101 339.087 77.6547 336.196 73.3549C333.305 69.0551 330.228 64.9962 326.966 61.1783V86.4211H318.404V47.8896H325.465C326.688 49.1128 328.041 50.6141 329.524 52.3933C331.007 54.1725 332.517 56.0722 334.056 58.0924C335.594 60.1126 337.123 62.2069 338.643 64.3753C340.162 66.5437 341.59 68.6288 342.924 70.6304V47.8896H351.542V86.4211H344.258ZM378.008 87.1995C371.744 87.1995 366.971 85.4573 363.691 81.973C360.41 78.4887 358.77 73.5402 358.77 67.1276C358.77 63.9398 359.271 61.0948 360.271 58.5928C361.272 56.0908 362.644 53.9779 364.386 52.2543C366.128 50.5307 368.204 49.224 370.613 48.3344C373.023 47.4448 375.636 47 378.453 47C380.084 47 381.567 47.1205 382.901 47.3614C384.235 47.6023 385.403 47.8803 386.404 48.1954C387.405 48.5105 388.239 48.8348 388.906 49.1684C389.573 49.502 390.055 49.7615 390.352 49.9469L387.85 56.9526C386.663 56.3224 385.283 55.785 383.707 55.3401C382.132 54.8953 380.343 54.6729 378.342 54.6729C377.007 54.6729 375.701 54.8953 374.422 55.3401C373.143 55.785 372.013 56.4985 371.03 57.4808C370.048 58.4631 369.26 59.7326 368.667 61.2895C368.074 62.8463 367.778 64.7367 367.778 66.9608C367.778 68.74 367.972 70.3987 368.361 71.937C368.751 73.4753 369.381 74.8005 370.252 75.9125C371.123 77.0245 372.263 77.9049 373.671 78.5536C375.08 79.2022 376.785 79.5266 378.787 79.5266C380.047 79.5266 381.177 79.4524 382.178 79.3042C383.179 79.1559 384.069 78.9798 384.847 78.776C385.625 78.5721 386.311 78.3404 386.904 78.0809C387.497 77.8215 388.035 77.5805 388.517 77.3581L390.908 84.3083C389.684 85.0496 387.961 85.7168 385.737 86.3099C383.513 86.903 380.936 87.1995 378.008 87.1995V87.1995ZM422.267 86.4211C421.859 85.0867 421.405 83.7152 420.904 82.3066C420.404 80.8981 419.913 79.4895 419.431 78.0809H404.419C403.937 79.4895 403.446 80.8981 402.945 82.3066C402.445 83.7152 401.991 85.0867 401.583 86.4211H392.576C394.021 82.2696 395.393 78.4331 396.69 74.9117C397.987 71.3903 399.257 68.0728 400.499 64.9591C401.741 61.8455 402.964 58.8893 404.168 56.0908C405.373 53.2922 406.624 50.5585 407.922 47.8896H416.206C417.466 50.5585 418.708 53.2922 419.931 56.0908C421.155 58.8893 422.387 61.8455 423.629 64.9591C424.871 68.0728 426.14 71.3903 427.437 74.9117C428.735 78.4331 430.106 82.2696 431.552 86.4211H422.267V86.4211ZM411.869 56.619C411.684 57.175 411.406 57.9349 411.035 58.8986C410.664 59.8624 410.238 60.9744 409.756 62.2347C409.274 63.495 408.746 64.885 408.172 66.4047C407.597 67.9245 407.013 69.5184 406.42 71.1864H417.374C416.781 69.5184 416.206 67.9245 415.65 66.4047C415.094 64.885 414.566 63.495 414.065 62.2347C413.565 60.9744 413.129 59.8624 412.759 58.8986C412.388 57.9349 412.092 57.175 411.869 56.619V56.619ZM448.01 86.4211C446.49 83.1962 444.989 79.8416 443.506 76.3573C442.023 72.873 440.615 69.4257 439.28 66.0155C437.946 62.6053 436.714 59.3434 435.583 56.2298C434.452 53.1161 433.479 50.3361 432.664 47.8896H442.227C442.969 50.1137 443.775 52.5138 444.646 55.0899C445.517 57.6661 446.407 60.233 447.315 62.7907C448.223 65.3483 449.103 67.7948 449.956 70.13C450.808 72.4652 451.605 74.4854 452.347 76.1905C453.051 74.4854 453.839 72.4652 454.71 70.13C455.581 67.7948 456.47 65.3483 457.379 62.7907C458.287 60.233 459.176 57.6661 460.047 55.0899C460.919 52.5138 461.725 50.1137 462.466 47.8896H471.696C470.843 50.3361 469.861 53.1161 468.749 56.2298C467.637 59.3434 466.414 62.6053 465.079 66.0155C463.745 69.4257 462.336 72.873 460.854 76.3573C459.371 79.8416 457.87 83.1962 456.35 86.4211H448.01V86.4211ZM476.7 86.4211V47.8896H502.721V55.1733H485.374V62.7351H500.775V69.852H485.374V79.1374H504V86.4211H476.7V86.4211Z" fill="#3E444E"/>
</svg>
