<svg width="85" height="84" viewBox="0 0 85 84" fill="none" xmlns="http://www.w3.org/2000/svg">
<path d="M24.2001 1.09972C19.4001 2.49972 13.3001 9.09972 11.9001 14.1997C9.60007 23.0997 13.1001 32.3997 20.7001 37.0997C26.4001 40.6997 36.1001 40.4997 41.7001 36.7997C47.9001 32.6997 50.5001 27.7997 50.5001 19.9997C50.5001 12.2997 47.9001 7.29972 42.0001 3.39972C37.7001 0.499722 29.5001 -0.500278 24.2001 1.09972ZM37.8001 7.99972C42.0001 10.5997 45.0001 15.5997 45.0001 19.9997C45.0001 24.3997 42.0001 29.3997 37.8001 31.9997C26.1001 39.0997 11.9001 24.8997 19.0001 13.1997C21.6001 8.99972 26.6001 5.99972 31.0001 5.99972C32.9001 5.99972 36.0001 6.89972 37.8001 7.99972Z" fill="#707A8A"/>
<path d="M60.5993 43.4C58.8993 47.6 55.8993 49.3 51.4993 48.8C48.6993 48.5 47.8993 48.9 46.4993 51.2C44.9993 53.9 44.9993 54.2 46.8993 56.6C48.0993 58.1 48.9993 60.5 48.9993 62C48.9993 63.5 48.0993 65.9 46.8993 67.4C44.9993 69.8 44.9993 70.1 46.4993 72.8C47.8993 75.1 48.6993 75.5 51.4993 75.2C55.8993 74.7 58.8993 76.4 60.5993 80.6C61.7993 83.4 62.5993 84 64.9993 84C67.3993 84 68.1993 83.4 69.3993 80.6C71.0993 76.4 74.0993 74.7 78.4993 75.2C81.2993 75.5 82.0993 75.1 83.4993 72.8C84.9993 70.1 84.9993 69.8 83.0993 67.4C80.3993 64 80.3993 60 83.0993 56.6C84.9993 54.2 84.9993 53.9 83.4993 51.2C82.0993 48.9 81.2993 48.5 78.4993 48.8C74.0993 49.3 71.0993 47.6 69.3993 43.4C68.1993 40.6 67.3993 40 64.9993 40C62.5993 40 61.7993 40.6 60.5993 43.4ZM68.9993 58C70.0993 59.1 70.9993 60.9 70.9993 62C70.9993 64.6 67.5993 68 64.9993 68C63.8993 68 62.0993 67.1 60.9993 66C59.8993 64.9 58.9993 63.1 58.9993 62C58.9993 60.9 59.8993 59.1 60.9993 58C62.0993 56.9 63.8993 56 64.9993 56C66.0993 56 67.8993 56.9 68.9993 58Z" fill="#707A8A"/>
<path d="M3.49983 50.4999C-1.50017 55.3999 1.19983 67.9999 8.39983 73.4999C15.6998 78.9999 28.0998 81.1999 38.8998 78.8999L43.9998 77.7999L42.4998 74.9999C41.0998 72.3999 40.6998 72.1999 37.7998 73.0999C29.2998 75.4999 17.0998 72.9999 11.1998 67.5999C8.09983 64.6999 7.59983 63.6999 7.59983 59.3999L7.49983 54.4999L23.6998 54.1999L39.9998 53.9999L41.4998 50.9999L43.0998 47.9999H24.4998C6.09983 47.9999 5.89983 47.9999 3.49983 50.4999Z" fill="#707A8A"/>
</svg>
