<svg width="512" height="512" viewBox="0 0 512 512" fill="none" xmlns="http://www.w3.org/2000/svg">
<g clip-path="url(#clip0_942_49)">
<path d="M204.323 2.34231L201.523 4.74259L201.223 93.8527L201.023 182.963H256.029H311.035L310.835 93.8527L310.535 4.74259L307.735 2.34231L304.935 -0.0579593H256.029H207.124L204.323 2.34231Z" fill="#FAB6B6"/>
<path d="M15.2015 167.561C9.60089 170.361 6.2005 173.862 2.7001 180.362L0.499851 184.463L0.199817 336.48C-0.100217 507.8 -0.700285 494.198 7.80068 503.199C10.801 506.399 14.0014 508.6 17.6018 510C23.0024 512 24.3026 512 256.029 512C486.155 512 489.055 512 494.256 510C501.057 507.499 507.458 500.999 510.058 494.198C512.058 489.097 512.058 485.897 512.058 338.68C512.058 239.569 511.658 187.263 511.058 184.763C509.358 178.862 503.957 171.761 498.657 168.461L493.756 165.461L429.949 165.161L366.141 164.96L365.841 190.763L365.541 216.566L362.541 222.467C358.941 229.468 353.24 234.268 345.839 236.469C338.138 238.769 173.92 238.769 166.219 236.469C158.818 234.268 153.117 229.468 149.517 222.467L146.516 216.566L146.216 190.763L145.916 164.96H83.1093H20.4021L15.2015 167.561ZM254.529 257.871C259.329 260.071 261.43 262.272 263.53 267.272C264.83 270.473 265.03 283.174 265.03 370.384C265.03 438.192 264.73 470.795 263.93 472.696C262.63 476.196 258.529 480.596 254.529 482.797C251.828 484.397 242.327 484.497 149.517 484.797C75.1083 484.997 46.105 484.797 42.2046 483.997C34.8038 482.397 29.6032 477.196 28.003 469.795C27.2029 465.995 27.0029 437.992 27.2029 366.983C27.5029 278.373 27.7029 269.172 29.2031 266.472C31.5034 262.272 36.2039 258.071 39.6043 256.971C41.2045 256.571 89.31 256.071 146.516 256.071C245.428 255.971 250.728 256.071 254.529 257.871ZM481.655 277.073C485.255 280.674 485.255 286.274 481.655 289.875L479.054 292.475L391.744 292.775C343.839 292.975 303.034 292.775 301.134 292.475C291.533 290.675 289.933 278.073 299.034 274.673C299.834 274.373 340.739 274.173 389.744 274.273L479.054 274.473L481.655 277.073ZM353.64 341.081C357.24 344.681 357.24 350.282 353.64 353.882L351.04 356.482L327.837 356.782C315.036 356.982 303.034 356.882 301.234 356.482C291.433 354.682 289.933 342.081 299.034 338.68C299.834 338.38 311.935 338.18 325.737 338.28L351.04 338.48L353.64 341.081ZM397.345 376.185C400.645 377.885 401.946 380.085 401.946 383.985C401.946 387.886 400.645 390.086 397.345 391.786C395.745 392.686 381.643 392.986 346.739 392.986H298.334L295.633 390.486C293.633 388.686 293.033 387.086 293.033 383.985C293.033 380.885 293.633 379.285 295.633 377.485L298.334 374.984H346.739C381.643 374.984 395.745 375.284 397.345 376.185ZM332.538 412.389C338.438 414.889 339.938 421.69 335.638 426.69L333.238 429.491H315.736C298.534 429.491 298.134 429.491 295.633 427.09C290.933 422.59 293.233 412.889 299.334 411.689C300.534 411.489 307.735 411.189 315.336 411.089C325.237 410.989 330.037 411.389 332.538 412.389ZM424.448 448.993C430.249 451.193 431.349 459.994 426.348 463.995C423.848 465.995 422.348 465.995 360.841 465.995H297.934L295.533 463.494C291.333 459.394 292.333 452.193 297.534 449.193C300.034 447.693 420.648 447.493 424.448 448.993Z" fill="#FAB6B6"/>
<path d="M46.0054 369.984V465.995H55.0064H64.0074V458.694C64.0074 436.792 75.7088 417.59 94.5109 408.489C98.9114 406.288 102.712 404.488 102.912 404.288C103.112 404.188 101.112 401.688 98.5113 398.787C92.3106 391.887 88.6102 385.286 85.4099 375.485C83.2096 368.784 82.7095 365.684 82.7095 356.483C82.8096 337.881 88.2102 324.779 101.512 311.378C114.113 298.676 127.915 292.975 146.017 292.875C161.118 292.775 173.92 297.076 185.821 306.177C205.223 321.179 214.325 347.982 208.024 372.384C205.624 381.886 201.423 389.886 194.522 398.287L189.222 404.688L192.922 405.888C197.923 407.288 207.724 413.789 212.424 418.59C222.425 428.791 226.726 438.592 228.326 454.594L229.426 465.995H238.227H247.028V369.984V273.973H146.517H46.0054V369.984Z" fill="#FAB6B6"/>
<path d="M134.015 312.577C122.014 315.777 111.013 325.078 105.212 336.979C101.612 344.38 101.512 344.68 101.512 356.482C101.512 367.883 101.712 368.783 104.712 375.284C108.312 382.885 116.313 391.886 122.814 395.686C145.317 408.888 174.92 400.587 186.621 377.784C204.823 342.18 172.52 302.275 134.015 312.577Z" fill="#FAB6B6"/>
<path d="M107.112 422.59C100.711 424.89 95.9106 428.191 91.2101 433.491C85.8095 439.592 82.9091 447.393 82.3091 457.694L81.709 465.995H146.016H210.224L209.824 456.694C209.524 449.493 208.823 446.293 206.823 441.792C203.523 434.592 196.522 427.591 189.221 424.19L183.521 421.49L147.516 421.29C117.013 421.09 110.812 421.29 107.112 422.59Z" fill="#FAB6B6"/>
<path d="M165.019 189.463V214.066L167.519 216.467L169.919 218.967H256.029H342.139L344.539 216.467L347.039 214.066V189.463V164.961H338.038H329.037V175.962C329.037 190.164 326.937 194.964 318.836 199.065C315.336 200.865 312.035 200.965 256.029 200.965C200.023 200.965 196.722 200.865 193.222 199.065C185.121 194.964 183.021 190.164 183.021 175.962V164.961H174.02H165.019V189.463Z" fill="#FAB6B6"/>
</g>
<defs>
<clipPath id="clip0_942_49">
<rect width="512" height="512" fill="white"/>
</clipPath>
</defs>
</svg>
