<svg width="512" height="512" viewBox="0 0 512 512" fill="none" xmlns="http://www.w3.org/2000/svg">
<g clip-path="url(#clip0_942_40)">
<path d="M204.6 1.59964C198.9 3.69964 194.4 7.39964 191.3 12.7996L188.5 17.4996L188 85.4996L187.5 153.5L109.5 154L31.5001 154.5L25.0001 157.6C16.9001 161.5 10.5001 167.2 6.30013 174.1C-0.29987 185.2 0.000130208 176.8 0.000130208 333C0.000130208 449.7 0.30013 475.4 1.40013 479.6C5.50013 495.1 18.5001 507.6 33.8001 510.9C41.3001 512.5 470.6 512.5 478.2 510.9C493.9 507.6 507.5 493.9 510.9 478.2C511.7 474.4 512 432.6 512 332.2C512 176.8 512.3 185.2 505.7 174.1C501.5 167.2 495.1 161.5 487 157.6L480.5 154.5L402.5 154L324.5 153.5L324 85.4996L323.5 17.4996L320.8 12.8996C317.7 7.59964 312.8 3.49964 306.9 1.49964C300.9 -0.70036 210.4 -0.60036 204.6 1.59964ZM302.3 18.1996C307.1 20.6996 306.9 17.6996 307 105.2V188H256H205V105.2C205.1 18.1996 204.9 20.7996 209.5 18.1996C212.4 16.5996 299.2 16.4996 302.3 18.1996ZM154 195.3C154 219.4 154 219.6 156.6 224.8C159.8 231.2 164.9 235.6 171.4 237.5C178.8 239.7 333.2 239.7 340.6 237.5C347.1 235.6 352.2 231.2 355.4 224.8C358 219.6 358 219.4 358 195.3V171H416.8H475.6L480.9 173.6C487.3 176.8 492.5 183.5 494 190.5C494.8 194 495 237.1 494.8 336C494.5 470.8 494.4 476.6 492.6 480C490 484.9 485.2 489.8 480.5 492.3L476.5 494.5H256C42.9001 494.5 35.4001 494.4 32.0001 492.6C27.1001 490 22.2001 485.2 19.7001 480.5L17.5001 476.5L17.2001 336C17.0001 235.5 17.2001 194 18.0001 190.3C19.5001 183.3 24.6001 176.9 31.2001 173.6L36.4001 171H95.2001H154V195.3ZM188 181.6C188 193.9 189.8 198.4 196 202.3C199.5 204.5 199.5 204.5 256.1 204.5H312.6L316.3 202C322.5 197.7 324 193.8 324 181.6V171H332.5H341V193.4C341 205.7 340.7 216.6 340.4 217.5C338.6 222 338.8 222 256 222C173.2 222 173.4 222 171.6 217.5C171.3 216.6 171 205.7 171 193.4V171H179.5H188V181.6Z" fill="#707A8A"/>
<path d="M52.4 257.9C50.1 258.9 47.2 261.3 45.9 263.1L43.5 266.5L43.2 362.1L43 457.7L45.3 461.1C46.5 462.9 49.1 465.5 50.9 466.7L54.3 469H153.5H252.7L256 466.7C260.4 463.8 262.9 460.2 264 455.4C265.2 450.3 265.2 274.7 264 269.6C262.9 264.5 260.2 261 255.4 258.3L251.5 256H154C61.1 256 56.3 256.1 52.4 257.9ZM247 362.5V452H238.5H230V443.6C230 438.1 229.3 433 228 428.8C224 415.7 213.3 403.4 201 397.7C197.4 396 194.3 394.5 194.1 394.4C193.9 394.2 195.8 391.8 198.2 389.1C207.6 378.6 213 364.4 213 349.8C213 323.9 196.5 301 171.9 292.9C162.2 289.8 145.5 289.5 137 292.4C117.2 299.1 103.5 312.3 96.9 331C93.6 340.4 93.5 358.6 96.8 368C99.7 376.5 103.7 383.3 109.3 389.6L113.9 394.7L109.8 396.1C103.5 398.2 95 404.1 89.8 409.9C81.2 419.8 77 431 77 444.2V452H68.5H60V362.5V273H153.5H247V362.5ZM161.1 308C182.5 312 197 330.6 195.8 352.6C194.2 382.2 162.7 400.9 135.7 388.3C108.2 375.4 102.6 339.8 124.7 318.9C134.7 309.4 147.7 305.5 161.1 308ZM191.7 412.2C195.8 413.7 199.1 416 203.1 419.9C210.2 427.1 213 433.9 213 444.5V452H153.5H94V445.1C94 441.3 94.7 436 95.6 433.2C98.7 423.8 107.2 415 116.7 411.5C119.6 410.5 127.9 410.1 153.2 410.1C184.4 410 186.2 410.1 191.7 412.2Z" fill="#707A8A"/>
<path d="M292.9 275.9C291.2 277.7 290 279.9 290 281.5C290 283.1 291.2 285.3 292.9 287.1L295.8 290H380H464.1L466.5 287.5C469 285.1 469.7 281 468.4 277.5C466.6 273 467.2 273 379 273H295.8L292.9 275.9Z" fill="#707A8A"/>
<path d="M293.9 334.3C289.3 337.8 288.9 343.1 292.9 347.1L295.8 350H320H344.2L347.1 347.1C350.2 344 350.7 341.2 348.8 337.7C346.4 333.2 345.7 333.1 320 333.1C302.3 333.1 295.1 333.4 293.9 334.3Z" fill="#707A8A"/>
<path d="M292.9 369.9C291.2 371.7 290 373.9 290 375.5C290 377.1 291.2 379.3 292.9 381.1L295.8 384H341.5H387.1L389.5 381.5C393.3 377.8 393.2 372.7 389.4 369.2L386.9 367H341.4H295.8L292.9 369.9Z" fill="#707A8A"/>
<path d="M292.9 403.9C291.2 405.7 290 407.9 290 409.5C290 411.1 291.2 413.3 292.9 415.1L295.8 418H311.5H327.2L330.1 415.1C331.8 413.3 333 411.1 333 409.5C333 407.9 331.8 405.7 330.1 403.9L327.2 401H311.5H295.8L292.9 403.9Z" fill="#707A8A"/>
<path d="M295 436.3C289.5 439.1 288.6 445.7 293.2 450C295.3 452 296.5 452 354.2 452H413.1L415.5 449.5C419 446.1 418.8 441.7 415.1 437.9L412.2 435H354.8C311 435 296.9 435.3 295 436.3Z" fill="#707A8A"/>
</g>
<defs>
<clipPath id="clip0_942_40">
<rect width="512" height="512" fill="white"/>
</clipPath>
</defs>
</svg>
