<svg width="1440" height="650" viewBox="0 0 1440 650" fill="none" xmlns="http://www.w3.org/2000/svg">
<g clip-path="url(#clip0_1005_10)">
<path d="M0 0L48 10.8776C96 21.2245 192 43.7755 288 108.378C384 173.776 480 281.224 576 270.878C672 260 768 130 864 86.6225C960 43.7755 1056 86.2245 1152 130C1248 173.776 1344 216.224 1440 195C1536 173.776 1632 86.2245 1728 43.3776C1824 0 1920 0 2016 0C2112 0 2208 0 2304 0C2400 0 2496 0 2592 32.5C2688 65 2784 130 2880 216.622C2976 303.776 3072 411.224 3168 433.378C3264 455 3360 390 3456 400.878C3552 411.224 3648 498.775 3744 444.122C3840 390 3936 195 4032 173.378C4128 151.224 4224 303.775 4320 335.878C4416 368.775 4512 281.224 4608 205.878C4704 130 4800 65 4896 97.5C4992 130 5088 260 5184 292.5C5280 325 5376 260 5472 238.378C5568 216.224 5664 238.776 5760 227.5C5856 216.224 5952 173.776 6048 151.622C6144 130 6240 130 6336 205.878C6432 281.224 6528 433.775 6624 455C6720 476.224 6816 368.776 6864 314.122L6912 260V650H6864C6816 650 6720 650 6624 650C6528 650 6432 650 6336 650C6240 650 6144 650 6048 650C5952 650 5856 650 5760 650C5664 650 5568 650 5472 650C5376 650 5280 650 5184 650C5088 650 4992 650 4896 650C4800 650 4704 650 4608 650C4512 650 4416 650 4320 650C4224 650 4128 650 4032 650C3936 650 3840 650 3744 650C3648 650 3552 650 3456 650C3360 650 3264 650 3168 650C3072 650 2976 650 2880 650C2784 650 2688 650 2592 650C2496 650 2400 650 2304 650C2208 650 2112 650 2016 650C1920 650 1824 650 1728 650C1632 650 1536 650 1440 650C1344 650 1248 650 1152 650C1056 650 960 650 864 650C768 650 672 650 576 650C480 650 384 650 288 650C192 650 96 650 48 650H0V0Z" fill="url(#paint0_linear_1005_10)"/>
<path opacity="0.9" d="M0 130L48 162.5C96 195 192 260 288 270.878C384 281.225 480 238.776 576 216.622C672 195 768 195 864 195C960 195 1056 195 1152 249.122C1248 303.776 1344 411.225 1440 455C1536 498.776 1632 476.225 1728 487.5C1824 498.776 1920 541.225 2016 563.378C2112 585 2208 585 2304 530.878C2400 476.225 2496 368.776 2592 270.878C2688 173.776 2784 86.2245 2880 97.5C2976 108.776 3072 216.224 3168 270.878C3264 325 3360 325 3456 292.5C3552 260 3648 195 3744 216.622C3840 238.776 3936 346.225 4032 390C4128 433.776 4224 411.224 4320 346.622C4416 281.224 4512 173.776 4608 195C4704 216.225 4800 368.776 4896 422.5C4992 476.225 5088 433.776 5184 368.378C5280 303.776 5376 216.225 5472 195C5568 173.776 5664 216.225 5760 227.5C5856 238.776 5952 216.225 6048 184.122C6144 151.225 6240 108.776 6336 130C6432 151.224 6528 238.776 6624 270.878C6720 303.776 6816 281.225 6864 270.878L6912 260V650H6864C6816 650 6720 650 6624 650C6528 650 6432 650 6336 650C6240 650 6144 650 6048 650C5952 650 5856 650 5760 650C5664 650 5568 650 5472 650C5376 650 5280 650 5184 650C5088 650 4992 650 4896 650C4800 650 4704 650 4608 650C4512 650 4416 650 4320 650C4224 650 4128 650 4032 650C3936 650 3840 650 3744 650C3648 650 3552 650 3456 650C3360 650 3264 650 3168 650C3072 650 2976 650 2880 650C2784 650 2688 650 2592 650C2496 650 2400 650 2304 650C2208 650 2112 650 2016 650C1920 650 1824 650 1728 650C1632 650 1536 650 1440 650C1344 650 1248 650 1152 650C1056 650 960 650 864 650C768 650 672 650 576 650C480 650 384 650 288 650C192 650 96 650 48 650H0V130Z" fill="url(#paint1_linear_1005_10)"/>
</g>
<defs>
<linearGradient id="paint0_linear_1005_10" x1="0" y1="650" x2="0" y2="0" gradientUnits="userSpaceOnUse">
<stop stop-color="#FAB6B6" stop-opacity="0.8"/>
<stop offset="1" stop-color="#FAF0F0"/>
</linearGradient>
<linearGradient id="paint1_linear_1005_10" x1="0" y1="650" x2="0" y2="96.5179" gradientUnits="userSpaceOnUse">
<stop stop-color="#FAB6B6" stop-opacity="0.8"/>
<stop offset="1" stop-color="#FAB6B6"/>
</linearGradient>
<clipPath id="clip0_1005_10">
<rect width="1440" height="650" fill="white"/>
</clipPath>
</defs>
</svg>
